<?xml version="1.0" encoding="utf-8"?>
<!-- Generator: Adobe Illustrator 23.0.1, SVG Export Plug-In . SVG Version: 6.00 Build 0)  -->
<svg version="1.1" id="Capa_1" xmlns="http://www.w3.org/2000/svg" xmlns:xlink="http://www.w3.org/1999/xlink" x="0px" y="0px"
	 viewBox="0 0 123 93" style="enable-background:new 0 0 123 93;" xml:space="preserve">
<style type="text/css">
	.st0{fill:#7A7A7A;}
	.st1{fill:none;}
</style>
<g>
	<path class="st0" d="M85.9,7.9C76,6.5,65.3,11.5,61.8,20.4c-1.7-4.3-5.3-7.8-9.5-10.1c-7-3.7-13.9-3.8-21.4-0.8
		c-5.8,2.3-10.3,8.4-12.7,13.8c-3,6.7-1.5,14.9,0.4,21.8c0.4,1.3,2.4,0.7,2.1-0.5c-3.1-11.4-2.6-23.9,8.2-31.5
		c5.1-3.6,13.9-4.8,19.5-2.4c5.9,2.6,11.8,7.7,12.3,14.3c0.1,1.3,2,1.3,2.1,0C64,12.8,79.6,6.3,90.5,11.3
		c11.6,5.3,16.5,20.1,12.7,31.4c-2.4,7.1-12,5.3-18.3,5.4c-3.6,0-7.1,0.1-10.7,0c-0.5,0-2.5,0-2.4,0c-0.6-0.3-2-4.4-2.3-5.2
		c-0.4-1.1-1.9-0.9-2.1,0.3c-0.7,5.3-2.1,10.4-3.3,15.6C63,50,62.5,41.2,61,32.5c-0.2-1-1.8-0.9-2.1,0c-1.5,6.1-2.9,12.1-4.4,18.2
		c-0.7-2.8-1.3-5.6-2-8.4c-0.2-0.9-1.9-1-2.1,0c-0.2,1.4-0.6,5.2-1.6,5.9c-0.7,0.5-3.2,0-4.1,0c-3.9,0-7.7,0-11.6-0.1
		c-4.2,0-10.9-0.8-10.7,5.2c0.1,3.2,3.2,6.4,5.1,8.7c2.8,3.4,6.3,6.3,9.8,9c7.4,5.5,15.6,9.8,23.6,14.4c0.3,0.2,0.7,0.2,1.1,0
		c14.4-7.5,26.1-17.3,36.3-29.5c0.8-1-0.7-2.5-1.5-1.4c-6.8,8.1-14.3,15.8-23.2,21.7c-2.9,1.9-9.1,7.3-12.7,6.9
		c-1.7-0.2-4-2.3-5.4-3.1c-2.2-1.3-4.5-2.5-6.7-3.9c-4.9-2.9-9.6-6-13.9-9.7c-2.6-2.2-15.4-13.9-6.9-16.4c3.2-0.9,8.4,0.1,11.7,0.1
		c3.3,0,6.6,0,9.9,0.1c0.5,0,0.9-0.3,1-0.7c0.3-0.8,0.5-1.5,0.7-2.3c0.7,2.8,1.3,5.6,2,8.5c0.2,1,1.8,1,2.1,0
		c1.4-5.8,2.8-11.5,4.2-17.3c1.2,9,1.6,18.2,3.2,27.2c0.2,1.2,2,0.8,2.1-0.3c0.8-6.1,2.6-12.1,3.8-18.2c0.7,1.5,1.7,2.7,3.7,3
		c4.8,0.7,10.5,0,15.4,0c4.5,0,10.5,0.9,14.2-2c3.2-2.5,3.9-7,4.2-10.7C107.5,24.8,100.2,10,85.9,7.9z"/>
</g>
<rect class="st1" width="123" height="93"/>
</svg>
