<?xml version="1.0" encoding="utf-8"?>
<!-- Generator: Adobe Illustrator 23.0.1, SVG Export Plug-In . SVG Version: 6.00 Build 0)  -->
<svg version="1.1" id="Capa_1" xmlns="http://www.w3.org/2000/svg" xmlns:xlink="http://www.w3.org/1999/xlink" x="0px" y="0px"
	 viewBox="0 0 123 93" style="enable-background:new 0 0 123 93;" xml:space="preserve">
<style type="text/css">
	.st0{fill:none;}
	.st1{fill:#7A7A7A;}
</style>
<rect class="st0" width="123" height="93"/>
<g>
	<path class="st1" d="M83,56.2c1.5-8.4,2.9-16.9,3-25.5c0.1-6.5-0.4-13.9-4.8-19.1c-3.4-4.1-8.5-6.2-13.6-6.4
		c-7.8-2.3-13.9,0-20.2,4.8c-5.7,4.3-8.5,9.8-9.1,16.9c-0.8,9.7,0.5,19.7,2.1,29.3c-2.1,0.1-4.6,0.6-5.3,2.3c-0.4,1-0.1,3.4,0.3,4.2
		c0.6,1.4,1.9,1.3,2.6,2.3c1,1.6,0.1,6.2-0.1,7.8c-0.3,2.5-0.4,4.9-0.2,7.4c0.3,3,0.7,7.4,4.3,8.3c10.7,2.6,7.2-12.8,5.8-18
		c-0.3-1.1-0.7-2.1-0.9-3.2c-0.7-4-0.1-2.7,1.1-5c0.7-1.3,0.8-2,0.6-3.6c-0.5-3.5-2.9-2.7-6-2.7c-0.1,0-0.1,0-0.2,0
		c-1-6-1.7-11.9-2-18c-0.3-5.4-0.7-11.3,0.9-16.5c0-0.2,0.1-0.3,0.2-0.5c-1.5,5.7-1,11.9,1.4,17.3c4.9,11,17.7,13.2,28.1,8.8
		c4.9-2.1,9.6-5.1,11.4-10.4c1.9-5.8,2.2-13.6-0.2-19.3c-1.2-2.7-3-5.1-5.2-7.1c2.1,1.4,3.9,3.3,5,5.6c2.8,5.9,2.5,12.9,2.2,19.3
		c-0.4,7-1.5,13.9-2.8,20.7c0,0,0,0,0,0c-2.6-0.2-5.4-0.3-6.3,2.4c-0.4,1.2-0.6,3,0,4.1c1,2,1.8,1,1.9,3.4
		c0.2,5.2-7.3,21.7,2.4,22.6c9.4,0.9,7.2-12.4,6.4-18.3c-0.2-1.7-0.8-4.1,0.1-5.7c0.4-0.6,1.2-0.9,1.6-1.5c0.6-1,0.8-2.6,0.8-3.8
		C87.9,56.2,85.6,56.4,83,56.2z M46.4,58c1.4,1.1-0.4,3.3-0.9,4.3c-0.9,1.9-1.2,1.8-0.9,4.1c0.6,4.1,2,8,2.5,12.2
		c0.3,1.9,1.2,4.7-0.1,6.5c-1.2,1.8-3.5,1.9-5.1,1c-3.2-1.8-2.7-8.4-2.4-11.7c0.3-2.9,1.3-6.6,0.3-9.5c-0.6-1.7-0.8-0.9-1.9-2.1
		c-3.3-3.9,1.4-4.7,4.4-4.8C43.4,57.9,45.7,57.4,46.4,58z M63.3,7.1c2,0.3,4,0.8,5.9,1.8c6.1,3.1,9.6,8,9.1,15
		c-0.5,6.3-3.4,13-9.9,15c-5.5,1.7-14.2,1.5-17.5-4C48,30.4,48.3,23.2,50,18.4C52.1,12.6,57.2,8,63.3,7.1z M80.7,34.9
		C77.9,45.5,64.4,48.6,55,46.6c-11-2.4-14.4-15.9-11.7-25.6C45.2,14,50.6,8.9,57.1,7.4c-2.6,1.3-4.9,3.3-6.5,5.7
		c-6.3,9.2-5.3,26,7.6,28.2c5.8,1,12.6,0.1,16.8-4.2c4.3-4.3,5.9-11.4,5.2-17.3c-0.1-0.7-0.2-1.3-0.4-1.9
		C82,23.1,82.2,29.1,80.7,34.9z M84.7,62.8c-1.5,2-1.6,2.3-1.3,5.2c0.3,3.5,3.5,19.9-3.8,18.5c-7-1.3-1.1-16.2-0.9-20.7
		c0.1-1.6-0.1-1.9-0.7-3.1c-0.6-1.2-2.7-3.1-1.1-4.7c0.7-0.7,4.4-0.2,5.4-0.1C86.3,58.5,86.9,59.9,84.7,62.8z"/>
</g>
</svg>
