<?xml version="1.0" encoding="utf-8"?>
<!-- Generator: Adobe Illustrator 23.0.1, SVG Export Plug-In . SVG Version: 6.00 Build 0)  -->
<svg version="1.1" id="Capa_1" xmlns="http://www.w3.org/2000/svg" xmlns:xlink="http://www.w3.org/1999/xlink" x="0px" y="0px"
	 viewBox="0 0 123 93" style="enable-background:new 0 0 123 93;" xml:space="preserve">
<style type="text/css">
	.st0{fill:none;}
	.st1{fill:#7A7A7A;}
</style>
<rect class="st0" width="123" height="93"/>
<g>
	<path class="st1" d="M109.9,47.7c-0.1-0.8-0.2-1.7-0.2-2.5c0-1,0.2-2-0.4-2.8c-1-1.3-2.8-1.1-4.3-1.1c0-2.2-0.1-4.4-0.1-6.7
		c0-1.5,0.5-4.1-0.4-5.5c-1.5-2.2-6-2-8.7-2c0-0.4,0-0.8-0.1-1.1c-0.5-5.7-3.6-6.6-9.1-6.7c-6.1,0-7.6,2.1-8.1,8
		c-0.3,4.7-0.5,9.4-0.5,14.1c-5.8,0.5-12-0.2-17.8-0.1c-5,0.1-10,0.1-15,0.3c-0.1-4.7-0.2-9.4-0.5-14c-0.4-5.9-2-8.1-8.1-8
		c-4.2,0-8.6,0.4-9.1,5.2c-0.1,0.8-0.2,1.7-0.2,2.6c-2.6,0.1-6.8-0.2-8.3,1.8c-2,2.5-1.1,9.1-1.1,12c0,0.1,0,0.2,0,0.3
		c-1.2-0.1-2.6-0.1-3.6,0.3c-1.8,0.8-1.1,3.8-1.1,5.3c0,1.6-0.5,4.1,1.4,4.5c1,0.2,2,0.2,3.1,0.2c0,3.7,0.2,7.4,1,10.6
		c1,4.1,4.9,4,8.7,4.1c0,0.5,0,1.1,0.1,1.6c0.4,5.1,3.3,5.5,7.8,5.5c2.9,0,7.4,1.1,9.1-1.8c1-1.7,0.8-4.7,0.8-6.6
		c0.1-4.1,0.1-8.2,0.1-12.3c0-0.3,0-0.7,0-1c10.8-0.1,21.7,0.4,32.5-0.2c0,3.7-0.1,7.3,0,11c0,2.4-0.4,5.4,0.4,7.7
		c1.3,3.9,5.9,3,9.3,3c3.9-0.1,7.1,0.2,8-4.3c0.2-0.9,0.3-1.9,0.3-2.9c3.6-0.1,7.5-0.1,8.6-4c0.8-3.1,0.9-6.6,0.8-10.1
		c1.2,0.1,2.6,0,3.6-0.5C110.2,50.9,110,49,109.9,47.7z M15.4,49.4c-0.1-1,0-2.1,0-3c0-0.6,0-1.2,0-1.8c0-0.2,0.1-0.9-0.1-1
		c0.4-0.1,1.2,0,1.5,0c0.4,0,0.7,0,1.1,0c0,1.9-0.1,3.9-0.2,5.9C16.9,49.6,16.1,49.5,15.4,49.4z M20.8,60.5
		c-0.4-1.7-0.2-3.7-0.3-5.4c-0.2-4.7-0.4-9.3-0.3-14c0-2.7-0.3-6,0.4-8.7c0.8-3.1,3.8-2.8,6.8-2.8C27.1,34.7,27.6,40,27.5,45
		c-0.1,6.2-0.5,12.8-0.2,19.2C23.8,64.1,21.7,64.3,20.8,60.5z M43,66.7c-0.2,2.4,0.1,4.1-2.4,4.7c-1.4,0.3-3.5,0-4.9,0
		c-2.7,0-5.2-1.2-6-4c-0.5-2,0.1-5,0.1-7.2c0-5.1-0.1-10.1,0-15.2c0.1-3.3,0-6.7-0.1-10c0-2.6,0.2-5.3,0.2-7.9
		c0-4.3,2.9-5.3,6.9-5.3c1.9,0,4.4,1,5.5,2.7c0.6,1,0.3,3.5,0.4,4.7c0.1,2.6,0.2,5.2,0.3,7.8c0.1,5,0.3,9.9,0.3,14.9
		C43.2,56.7,43.3,61.8,43,66.7z M45.3,49.6c0-1.9,0-3.8-0.1-5.8c5-0.2,10-0.2,15-0.3c5.8-0.1,12,0.6,17.7,0.1c0,1.9,0,3.8-0.1,5.7
		C67.1,50,56.1,49.4,45.3,49.6z M93.6,34.7c-0.1,3.3-0.2,6.7-0.1,10c0.1,4.7,0,9.5,0,14.2c-0.1,5.2,1.5,12-5.9,12.1
		c-1.2,0-3.5,0.5-4.7,0c-3.3-1.5-2.7-4-2.8-6.7c-0.1-4.7-0.1-9.3,0-14c0.1-4.9,0.2-9.7,0.3-14.6c0.2-5.2-1.4-14.3,6.1-14.2
		c4.5,0,6.2,1.5,7,6.2C93.9,30,93.6,32.4,93.6,34.7z M102.7,55.5c-0.1,1.5,0.1,3.4-0.3,4.9c-0.9,3.7-3.3,3.5-6.5,3.6
		c0-2.3-0.2-4.7-0.2-6.9c0.1-4.1,0.1-8.2,0-12.3c-0.1-5.1,0.3-10.3,0.1-15.5c1.4,0,2.8,0,4.1,0.4c2.5,0.7,2.5,0.9,2.8,3.7
		c0.3,3.4,0.1,7,0.1,10.5C102.8,47.7,102.8,51.6,102.7,55.5z M105.2,49.7c-0.1-2.1-0.2-4.1-0.2-5.9c0-0.1,0-0.2,0-0.4
		c0.5,0,1,0,1.5,0c0.7,0,0.8-0.1,1,0.4c0.2,0.5,0,1.3,0,1.8c0,0.6,0.1,1.3,0.2,1.9c0,0.5,0.1,1,0.1,1.5c0,0,0,0.4,0,0.5
		c-0.1,0-0.2,0.1-0.2,0.1C106.7,49.7,106,49.7,105.2,49.7z"/>
	<path class="st1" d="M32,27.1c-1,2.5-0.7,5.7-0.4,8.3c0.2,1.4,2.4,1.4,2.2,0c-0.3-2.4-0.7-5.4,0.3-7.7C34.7,26.3,32.6,25.8,32,27.1
		z"/>
	<path class="st1" d="M35.1,23.8c-1.4,0-1.4,2.2,0,2.2C36.5,26,36.5,23.8,35.1,23.8z"/>
	<path class="st1" d="M83.1,26.1c-0.8,1-0.9,2.6-1,3.9c-0.2,1.6-0.3,3.2-0.1,4.8c0.1,1.4,2.3,1.4,2.2,0c-0.1-1.3,0-2.6,0.1-4
		c0.1-1.1,0.1-2.7,0.8-3.6C85.8,26,83.9,24.9,83.1,26.1z"/>
	<path class="st1" d="M86.2,23.2c-1.4,0-1.4,2.2,0,2.2C87.6,25.4,87.6,23.2,86.2,23.2z"/>
</g>
</svg>
